<?xml version="1.0" encoding="UTF-8"?>
<svg xmlns="http://www.w3.org/2000/svg" xmlns:xlink="http://www.w3.org/1999/xlink" version="1.1" viewBox="0 0 1366 639">
  <defs>
    <style>
      .cls-1 {
        fill: #fff;
      }

      .cls-2 {
        fill: url(#linear-gradient);
        stroke: #fff;
        stroke-linecap: round;
        stroke-linejoin: round;
        stroke-width: 4.92px;
      }
    </style>
    <linearGradient id="linear-gradient" x1="417.75" y1="467.6" x2="998.48" y2="467.6" gradientUnits="userSpaceOnUse">
      <stop offset="0" stop-color="#fff"/>
      <stop offset=".01" stop-color="#fff" stop-opacity=".95"/>
      <stop offset=".09" stop-color="#fff" stop-opacity=".7"/>
      <stop offset=".17" stop-color="#fff" stop-opacity=".49"/>
      <stop offset=".25" stop-color="#fff" stop-opacity=".31"/>
      <stop offset=".32" stop-color="#fff" stop-opacity=".18"/>
      <stop offset=".39" stop-color="#fff" stop-opacity=".08"/>
      <stop offset=".45" stop-color="#fff" stop-opacity=".02"/>
      <stop offset=".5" stop-color="#fff" stop-opacity="0"/>
      <stop offset=".54" stop-color="#fff" stop-opacity=".03"/>
      <stop offset=".61" stop-color="#fff" stop-opacity=".1"/>
      <stop offset=".69" stop-color="#fff" stop-opacity=".23"/>
      <stop offset=".77" stop-color="#fff" stop-opacity=".41"/>
      <stop offset=".87" stop-color="#fff" stop-opacity=".63"/>
      <stop offset=".97" stop-color="#fff" stop-opacity=".9"/>
      <stop offset="1" stop-color="#fff"/>
    </linearGradient>
  </defs>
  <!-- Generator: Adobe Illustrator 28.7.5, SVG Export Plug-In . SVG Version: 1.2.0 Build 176)  -->
  <g>
    <g id="Layer_1">
      <g>
        <path class="cls-1" d="M25.21,240.69c.93-5.86,4.62-8.63,10.18-8.63h36.69c5.86,0,8.33,3.39,8.63,9.56.62,7.71,5.24,11.41,14.49,11.41h61.98c13.57,0,20.35-3.7,22.82-14.8,2.16-11.41-1.85-15.11-14.19-16.03l-62.59-4.93c-46.25-3.7-67.22-24.67-58.59-65.68,8.94-41.93,28.99-63.83,81.1-63.83h57.97c46.87,0,70.61,23.44,65.37,64.75-.93,5.86-4.62,8.63-10.18,8.63h-36.69c-5.86,0-8.33-3.39-8.63-9.56-.62-7.71-5.55-11.41-14.8-11.41h-57.35c-13.57,0-20.04,3.7-22.51,14.8-2.46,11.1,1.85,14.8,14.19,15.73l62.59,4.32c45.94,3.08,66.91,24.67,58.28,65.37-8.94,41.93-28.98,65.06-81.09,65.06h-62.59c-46.87,0-70.3-23.44-65.06-64.75Z"/>
        <path class="cls-1" d="M337.27,295.27l45.94-215.53c1.23-5.24,4.62-8.32,10.18-8.32h32.99c6.48,0,9.56,4.01,8.33,10.18l-45.94,215.53c-1.23,5.24-4.63,8.33-10.18,8.33h-32.99c-6.47,0-9.56-4.01-8.32-10.18Z"/>
        <path class="cls-1" d="M618.48,295.27l6.17-29.6c1.23-5.24,4.62-8.33,10.18-8.33h82.33c6.78,0,12.33-1.54,13.87-8.01,1.23-6.17-2.16-7.71-9.87-8.63l-42.24-5.24c-37-4.62-47.18-19.12-40.08-52.42,7.4-35.15,25.28-50.88,66.6-50.88h84.79c6.48,0,9.56,4.01,8.33,10.18l-6.17,29.6c-1.23,5.24-4.62,8.33-10.18,8.33h-79.55c-6.17,0-11.72.92-13.57,8.32-1.54,6.17,1.54,7.71,8.01,8.63l41.01,5.24c41.32,5.24,50.88,20.97,44.09,53.03-7.71,36.08-24.98,49.95-69.38,49.95h-86.03c-6.48,0-9.56-4.01-8.33-10.18Z"/>
        <path class="cls-1" d="M817.67,240.08l13.26-61.67h-5.86c-6.47,0-9.56-4.01-8.32-10.17l5.86-28.06c1.23-5.24,4.62-8.02,10.17-8.02,19.73-.61,24.05-4.01,31.14-35.77,1.23-5.86,4.62-8.63,10.18-8.63h17.27c6.47,0,9.56,4.01,8.32,10.18l-7.09,34.23h53.65c6.48,0,9.56,4.01,8.33,10.18l-5.86,27.75c-1.23,5.24-4.62,8.32-10.18,8.32h-55.81l-14.49,67.53c-2.16,9.87.93,12.95,13.87,12.95h37c6.48,0,9.56,4.01,8.33,10.18l-5.86,28.06c-1.23,5.24-4.62,8.33-10.17,8.33h-32.99c-55.81,0-69.99-21.89-60.74-65.37Z"/>
        <path class="cls-1" d="M1202.18,132.15h32.99c6.47,0,9.56,4.01,8.32,10.18l-32.99,154.79c-1.23,5.24-4.62,8.33-10.18,8.33h-32.99c-6.47,0-9.87-3.08-8.63-8.94l1.85-8.94c-10.18,11.41-24.05,17.88-44.71,17.88h-16.03c-44.71,0-64.44-26.21-55.5-68.45l8.02-37.31c8.63-41.01,27.44-67.53,72.15-67.53h28.37c20.66,0,32.07,6.48,37.31,17.88l1.85-9.56c1.23-5.24,4.62-8.33,10.18-8.33ZM1170.11,242.85l10.18-48.1c2.47-11.72-3.7-14.49-9.87-14.49h-48.72c-6.17,0-13.88,2.78-16.34,14.49l-10.48,48.1c-2.46,11.72,4.32,14.49,10.18,14.49h48.72c5.86,0,13.87-2.77,16.34-14.49Z"/>
        <path class="cls-1" d="M1243.81,295.27l45.94-215.53c1.23-5.24,4.62-8.32,10.18-8.32h32.99c6.48,0,9.56,4.01,8.33,10.18l-45.94,215.53c-1.23,5.24-4.62,8.33-10.18,8.33h-32.99c-6.47,0-9.56-4.01-8.33-10.18Z"/>
        <path class="cls-1" d="M491.71,427.55c.37-2.34,1.85-3.45,4.07-3.45h14.68c2.34,0,3.33,1.36,3.45,3.82.25,3.08,2.1,4.56,5.8,4.56h24.79c5.43,0,8.14-1.48,9.13-5.92.86-4.56-.74-6.05-5.67-6.41l-25.04-1.97c-18.5-1.48-26.89-9.87-23.44-26.27,3.58-16.78,11.6-25.53,32.44-25.53h23.19c18.75,0,28.25,9.38,26.15,25.9-.37,2.34-1.85,3.45-4.07,3.45h-14.68c-2.34,0-3.33-1.36-3.45-3.82-.25-3.08-2.22-4.56-5.92-4.56h-22.94c-5.43,0-8.02,1.48-9,5.92-.99,4.44.74,5.92,5.67,6.29l25.04,1.73c18.38,1.23,26.77,9.87,23.31,26.15-3.58,16.78-11.6,26.03-32.44,26.03h-25.04c-18.75,0-28.12-9.38-26.03-25.9Z"/>
        <path class="cls-1" d="M581.75,449.38l13.2-61.92c.49-2.1,1.85-3.33,4.07-3.33h13.2c2.59,0,3.82,1.6,3.33,4.07l-13.2,61.92c-.49,2.1-1.85,3.33-4.07,3.33h-13.2c-2.59,0-3.82-1.6-3.33-4.07ZM598.03,373.03l2.1-9.87c.49-2.1,1.85-3.33,4.07-3.33h13.2c2.59,0,3.82,1.6,3.33,4.07l-2.1,9.87c-.49,2.1-1.85,3.33-4.07,3.33h-13.2c-2.59,0-3.82-1.6-3.33-4.07Z"/>
        <path class="cls-1" d="M616.53,449.38l18.38-86.22c.49-2.1,1.85-3.33,4.07-3.33h13.2c2.59,0,3.82,1.6,3.33,4.07l-18.38,86.22c-.49,2.1-1.85,3.33-4.07,3.33h-13.2c-2.59,0-3.82-1.6-3.33-4.07Z"/>
        <path class="cls-1" d="M672.04,450.12l-12.95-61.92c-.49-2.47.74-4.07,3.33-4.07l13.69.12c2.22,0,3.7.99,4.07,3.33l7.77,45.52,27.51-46.38c.99-1.73,2.47-2.47,4.44-2.47l15.79-.12c2.96,0,4.07,1.97,2.47,4.44l-39.97,62.42c-1.11,1.6-2.47,2.47-4.44,2.47h-17.64c-2.22,0-3.58-1.23-4.07-3.33Z"/>
        <path class="cls-1" d="M735.06,426.07l3.21-14.93c3.45-16.4,9.74-27.01,28.87-27.01h17.39c19.12,0,25.66,10.61,22.2,27.01l-2.34,11.35c-.49,2.1-1.85,3.33-4.07,3.33h-44.41l-.61,2.59c-.99,4.69.49,5.8,4.07,5.8h32.69c2.59,0,3.82,1.6,3.33,4.07l-2.47,11.84c-.49,2.1-1.85,3.33-4.07,3.33h-31.58c-19.12,0-25.78-10.48-22.2-27.38ZM785.88,411.63l.62-2.47c.99-4.69-.37-5.8-4.07-5.8h-16.41c-3.7,0-5.55,1.11-6.54,5.8l-.62,2.47h27.01Z"/>
        <path class="cls-1" d="M868.03,384.13c2.59,0,3.82,1.6,3.33,4.07l-2.47,11.84c-.49,2.1-1.85,3.33-4.07,3.33h-19c-3.58,0-5.55,1.11-6.54,5.8l-8.76,40.95c-.49,2.1-1.85,3.33-4.07,3.33h-13.2c-2.59,0-3.82-1.6-3.33-4.07l13.2-61.92c.49-2.1,1.85-3.33,4.07-3.33h13.2c2.59,0,3.95,1.23,3.46,3.58l-.74,3.58c4.07-4.56,9.74-7.15,17.88-7.15h7.03Z"/>
        <path class="cls-1" d="M863.96,449.38l2.47-11.84c.49-2.1,1.85-3.33,4.07-3.33h32.94c2.71,0,4.93-.62,5.55-3.21.49-2.47-.86-3.08-3.95-3.46l-16.9-2.1c-14.8-1.85-18.87-7.65-16.03-20.97,2.96-14.06,10.12-20.35,26.64-20.35h33.92c2.59,0,3.82,1.6,3.33,4.07l-2.47,11.84c-.49,2.1-1.85,3.33-4.07,3.33h-31.82c-2.47,0-4.69.37-5.43,3.33-.62,2.47.61,3.08,3.21,3.45l16.4,2.1c16.53,2.1,20.35,8.39,17.64,21.22-3.08,14.43-9.99,19.98-27.75,19.98h-34.42c-2.59,0-3.82-1.6-3.33-4.07Z"/>
        <path class="cls-1" d="M1042.16,79.68s-.04-.02-.05-.03c0,0,0,0,0,0h0c-28.42-12.96-31.12-46.68-31.12-46.68,0,0-2.7,33.72-31.12,46.68h0s0,0,0,0c-.02,0-.04.02-.05.03h.11c28.42,12.96,31.06,46.32,31.06,46.32,0,0,2.65-33.36,31.06-46.32h.11Z"/>
        <path class="cls-1" d="M1024.88,132.15h-32.99c-5.55,0-8.94,3.08-10.18,8.33l-32.99,154.79c-1.23,6.17,1.85,10.18,8.33,10.18h32.99c5.55,0,8.94-3.08,10.18-8.33l32.99-154.79c1.23-6.17-1.85-10.18-8.32-10.18Z"/>
        <path class="cls-2" d="M915.12,350.63c29.45,18.45,46.83,41.02,46.83,65.41,0,62.3-112.99,112.81-252.38,112.81s-252.38-50.51-252.38-112.81c0-27.31,21.71-52.35,57.84-71.86-59.67,25.88-97.28,63.56-97.28,105.52,0,78.05,130,141.33,290.37,141.33s290.37-63.28,290.37-141.33c0-38.6-31.82-73.57-83.36-99.07Z"/>
        <path class="cls-1" d="M326.47,132.15h-32.99c-5.55,0-8.94,3.08-10.18,8.33l-32.99,154.79c-1.23,6.17,1.85,10.18,8.32,10.18h32.99c5.55,0,8.94-3.08,10.18-8.33l32.99-154.79c1.23-6.17-1.85-10.18-8.32-10.18Z"/>
        <path class="cls-1" d="M344.6,79.68s-.04-.02-.05-.03c0,0,0,0,0,0h0c-28.42-12.96-31.12-46.68-31.12-46.68,0,0-2.7,33.72-31.12,46.68h0s0,0,0,0c-.02,0-.04.02-.05.03h.11c28.42,12.96,31.06,46.32,31.06,46.32,0,0,2.65-33.36,31.06-46.32h.11Z"/>
        <path class="cls-1" d="M556.5,132.15h-43.48c-47.79,0-63.52,26.52-72.15,67.53l-8.02,37.31c-8.94,42.24,7.71,68.45,55.5,68.45h78.94c5.55,0,8.94-3.08,10.18-8.33l6.17-29.6c1.23-6.17-1.85-10.18-8.33-10.18h-81.71c-8.94,0-12.64-2.77-10.18-14.49l1.54-6.47h111c5.55,0,8.94-3.08,10.18-8.33l5.86-28.37c8.63-41.01-7.71-67.53-55.5-67.53ZM528.24,218.48v.1s-.02-.03-.03-.05h0c-12.39-25.83-44.63-28.29-44.63-28.29,0,0,32.24-2.45,44.63-28.29h0s.02-.03.03-.05v.1c12.39,25.83,44.29,28.24,44.29,28.24,0,0-31.9,2.4-44.29,28.24Z"/>
        <path class="cls-1" d="M245.58,331.5s-.02-.01-.03-.02c0,0,0,0,0,0h0c-17.58-8.01-19.25-28.87-19.25-28.87,0,0-1.67,20.85-19.25,28.87h0s0,0,0,0c-.01,0-.02.01-.03.02h.07c17.58,8.01,19.21,28.65,19.21,28.65,0,0,1.64-20.63,19.21-28.65h.07Z"/>
        <path class="cls-1" d="M1016.47,531.93s-.02,0-.03-.01c0,0,0,0,0,0h0c-14.21-6.48-15.56-23.35-15.56-23.35,0,0-1.35,16.86-15.56,23.35h0s0,0,0,0c0,0-.02,0-.03.01h.05c14.21,6.48,15.54,23.17,15.54,23.17,0,0,1.32-16.69,15.54-23.17h.05Z"/>
        <path class="cls-1" d="M816.04,326.36s-.02-.01-.04-.02c0,0,0,0,0,0h0c-19.51-8.89-21.36-32.04-21.36-32.04,0,0-1.85,23.14-21.36,32.04h0s0,0,0,0c-.01,0-.02.01-.04.02h.07c19.5,8.89,21.32,31.79,21.32,31.79,0,0,1.82-22.9,21.32-31.79h.07Z"/>
      </g>
    </g>
  </g>
</svg>